<?xml version="1.0" encoding="UTF-8"?>
<svg version="1.1" xmlns="http://www.w3.org/2000/svg" width="600" height="600">
<path d="M0 0 C3.00102539 0.00314827 6.00104935 -0.02036026 9.00195312 -0.0456543 C26.75568232 -0.10398311 44.32230677 1.65627916 61.65039062 5.62817383 C63.06348511 5.94564575 63.06348511 5.94564575 64.50512695 6.26953125 C86.64601954 11.39503135 107.86238188 19.63042466 127.90039062 30.31567383 C128.54927246 30.65679199 129.1981543 30.99791016 129.86669922 31.34936523 C148.13897918 41.00969153 164.40797166 53.31510859 179.61132812 67.27270508 C183.5824067 70.81685882 187.5946757 73.81847185 192.16503906 76.56152344 C205.6271056 84.64174316 217.9287789 94.13196779 229.33789062 104.90551758 C231.49511355 106.93449097 233.69290278 108.85388964 235.96289062 110.75317383 C246.77904888 120.21174843 255.49021873 131.74401395 263.90039062 143.31567383 C264.65255859 144.34724609 264.65255859 144.34724609 265.41992188 145.3996582 C286.460417 174.62873652 300.25156968 208.74362383 307.15039062 244.00317383 C307.30161377 244.77298584 307.45283691 245.54279785 307.60864258 246.3359375 C310.53630651 262.35956623 311.27508075 278.24974323 311.21289062 294.50317383 C311.2101564 295.98927658 311.2101564 295.98927658 311.20736694 297.50540161 C311.16260322 311.96029164 310.78592784 326.10565884 307.90039062 340.31567383 C307.7234668 341.21608398 307.54654297 342.11649414 307.36425781 343.04418945 C306.06529788 349.51879803 304.55419795 355.92309535 302.90039062 362.31567383 C302.69075684 363.13567871 302.48112305 363.95568359 302.26513672 364.80053711 C293.79649377 397.18217648 277.78577517 426.13774655 257.86743164 452.76000977 C254.87502824 456.81919622 252.26444621 460.9600113 249.83789062 465.37817383 C243.69711534 476.49184689 236.0149392 486.56947455 227.90039062 496.31567383 C227.47032715 496.83597168 227.04026367 497.35626953 226.59716797 497.89233398 C216.08068851 510.57429374 204.9384315 522.19359582 191.90039062 532.31567383 C190.65782683 533.30999543 189.41566637 534.30482121 188.17382812 535.30004883 C155.17191308 561.46659008 116.28327433 578.69977258 74.90039062 586.31567383 C74.09972168 586.47648438 73.29905273 586.63729492 72.47412109 586.80297852 C44.3962661 592.29511793 10.91061128 592.04964075 -17.09960938 586.31567383 C-18.59451904 586.02563477 -18.59451904 586.02563477 -20.11962891 585.72973633 C-66.57783241 576.55000897 -109.36946696 555.61981365 -144.09960938 523.31567383 C-145.44983851 522.14445235 -146.80387429 520.9776015 -148.16210938 519.81567383 C-155.40964971 513.47043771 -161.840893 506.64395498 -167.85351562 499.12036133 C-169.31647429 497.2935712 -170.80257893 495.48500434 -172.31445312 493.69848633 C-199.69420747 461.26622898 -215.95204536 421.32311479 -224.55712891 380.12524414 C-225.89896421 373.98262029 -228.60002117 368.50242953 -231.22460938 362.81567383 C-238.37318067 346.89161501 -244.11564332 330.7439889 -247.91210938 313.69067383 C-248.18643799 312.4606665 -248.18643799 312.4606665 -248.46630859 311.20581055 C-252.19396756 293.16752744 -253.62389326 275.33121409 -253.47460938 256.94067383 C-253.46995667 255.91285797 -253.46530396 254.88504211 -253.46051025 253.82608032 C-253.38092064 238.80886209 -253.0466374 224.08788347 -250.09960938 209.31567383 C-249.80159424 207.78354248 -249.80159424 207.78354248 -249.49755859 206.22045898 C-239.60795406 156.75762043 -217.03152644 112.66286015 -182.09960938 76.31567383 C-181.58140625 75.77023926 -181.06320313 75.22480469 -180.52929688 74.6628418 C-173.16012194 66.93292215 -165.44820062 60.04767692 -156.89111328 53.65844727 C-155.09684724 52.31360354 -153.322425 50.94543143 -151.54882812 49.57348633 C-121.75798812 26.81027043 -85.81952576 11.92745816 -49.22460938 4.50317383 C-48.26401611 4.30828369 -47.30342285 4.11339355 -46.3137207 3.91259766 C-30.85209764 0.95280497 -15.71914333 -0.03429354 0 0 Z " fill="#262626" transform="translate(271.099609375,4.684326171875)"/>
<path d="M0 0 C5.46929561 1.62145744 10.73979326 3.80715947 16 6 C16 6.66 16 7.32 16 8 C16.54164795 8.15130371 17.0832959 8.30260742 17.64135742 8.45849609 C23.84076935 10.33726694 28.9079185 13.09288069 34.3125 16.625 C35.14064209 17.15843018 35.96878418 17.69186035 36.82202148 18.24145508 C46.38579227 24.46046823 55.31983407 31.14665623 63.7109375 38.8984375 C65.7224798 40.74521183 67.78002198 42.49987433 69.875 44.25 C79.51259936 52.68046571 87.58722756 62.60772485 95 73 C95.88751953 74.21042969 95.88751953 74.21042969 96.79296875 75.4453125 C105.22914672 87.14399408 112.4845984 99.6711128 118 113 C118.35449219 113.80824219 118.70898438 114.61648437 119.07421875 115.44921875 C122.78712806 124.1647848 122.78712806 124.1647848 122 129 C119.73529412 133.63235294 119.73529412 133.63235294 117 135 C114.83672086 135.13438499 112.66945454 135.20603683 110.50244141 135.24951172 C109.50214653 135.27176315 109.50214653 135.27176315 108.48164368 135.29446411 C107.03189794 135.32639046 105.58210656 135.35629266 104.13228226 135.38442612 C101.83731711 135.4299702 99.54264181 135.48297596 97.24789429 135.5383606 C90.72278804 135.69528145 84.19759329 135.84489895 77.671875 135.97412109 C73.68162385 136.05367211 69.69191112 136.14728955 65.7021904 136.24994278 C64.18168196 136.28632178 62.66103627 136.31737036 61.14030838 136.34298325 C59.01177375 136.37929772 56.88438006 136.43348367 54.75634766 136.49169922 C53.54548492 136.51755096 52.33462219 136.54340271 51.08706665 136.57003784 C47.76366928 137.0329158 46.49110452 137.85196649 44 140 C43.34 140 42.68 140 42 140 C41.71125 140.598125 41.4225 141.19625 41.125 141.8125 C40 144 40 144 38 147 C37.79149288 149.89204008 37.69598625 152.68530617 37.69921875 155.578125 C37.69493362 156.42292419 37.6906485 157.26772339 37.68623352 158.13812256 C37.68049017 159.92687078 37.67999 161.71564235 37.68432617 163.50439453 C37.68747225 166.22599841 37.66407619 168.94650038 37.63867188 171.66796875 C37.63639732 173.4088528 37.63569611 175.14973976 37.63671875 176.890625 C37.62290413 178.10193085 37.62290413 178.10193085 37.60881042 179.33770752 C37.65177643 184.65326603 38.65107246 188.23084021 41 193 C41.4021875 194.36125 41.4021875 194.36125 41.8125 195.75 C42.90488855 198.73969499 44.12600969 201.475037 45.5625 204.3125 C45.99691406 205.17488281 46.43132812 206.03726563 46.87890625 206.92578125 C52.99835316 215.79503487 60.56691535 220.94791453 70.0625 225.75 C72.37137552 226.95518952 74.67996257 228.16093181 76.98828125 229.3671875 C78.7355249 230.26969238 78.7355249 230.26969238 80.51806641 231.19042969 C85.96381855 234.02060182 91.35759666 236.94478513 96.75 239.875 C97.74088623 240.4127002 98.73177246 240.95040039 99.75268555 241.50439453 C102.50369869 242.99946499 105.25255628 244.49838168 108 246 C108.78020508 246.42603516 109.56041016 246.85207031 110.36425781 247.29101562 C112.37305608 248.39328391 114.37546061 249.50604542 116.375 250.625 C117.43460937 251.21539062 118.49421875 251.80578125 119.5859375 252.4140625 C122 254 122 254 124 257 C122.7440365 290.91101451 90.96637573 328.37988663 67.44824219 350.66552734 C63.47199379 354.32941368 59.25761769 357.67281605 55 361 C54.01644531 361.80050781 53.03289062 362.60101563 52.01953125 363.42578125 C43.54847423 370.24713423 34.4931232 375.72206762 25 381 C24.27699707 381.40669922 23.55399414 381.81339844 22.80908203 382.23242188 C13.43063343 387.48351292 4.25423122 391.70261165 -6 395 C-6.88816406 395.31839844 -7.77632813 395.63679688 -8.69140625 395.96484375 C-12.57671656 397.35382618 -15.80647609 398.40582489 -20 398 C-20 398.66 -20 399.32 -20 400 C-21.3918203 400.16374356 -22.78935868 400.27920565 -24.1875 400.375 C-24.96480469 400.44460938 -25.74210938 400.51421875 -26.54296875 400.5859375 C-29.53809005 399.87167964 -31.17970686 398.65631176 -33.02514648 396.19140625 C-35.2910459 391.09781418 -34.58002074 385.27751541 -34.4375 379.8125 C-34.41645401 378.34002412 -34.39671601 376.86752907 -34.37817383 375.39501953 C-34.12904237 359.46457024 -33.31426411 343.54649476 -32.49035645 327.63749695 C-32.04564173 319.01733063 -31.6368121 310.39565329 -31.234375 301.7734375 C-31.16797955 300.35480632 -31.101558 298.93617635 -31.03511047 297.51754761 C-30.90183894 294.67163258 -30.7685963 291.82571621 -30.63540649 288.97979736 C-30.6026273 288.27943611 -30.5698481 287.57907486 -30.53607559 286.85749054 C-30.47070125 285.45982407 -30.40539042 284.06215462 -30.34014511 282.66448212 C-29.04737346 254.97632239 -29.04737346 254.97632239 -28.18530273 242.79345703 C-26.924838 223.79182664 -30.84947775 215.10872891 -42.6875 200.75 C-43.59834351 199.64410522 -43.59834351 199.64410522 -44.52758789 198.51586914 C-49.07246962 193.0359246 -53.77861921 187.74947074 -58.63671875 182.546875 C-60.56725842 180.46635952 -62.42021682 178.35544565 -64.25 176.1875 C-76.3747308 162.25136363 -89.75843635 149.95826686 -106 141 C-106.587883 140.65966736 -107.17576599 140.31933472 -107.78146362 139.96868896 C-114.87254922 136.30160222 -121.857812 136.34961673 -129.69140625 136.28125 C-131.14590894 136.25454876 -132.60038269 136.22622892 -134.05482483 136.19641113 C-137.91788392 136.12230703 -141.78087845 136.07218436 -145.64438629 136.02838135 C-148.73675805 135.99112325 -151.82888366 135.94182421 -154.92107964 135.892313 C-162.80534032 135.76650002 -170.68973579 135.66752623 -178.57452202 135.58153725 C-187.79853983 135.48091318 -197.02230295 135.361591 -206.24609375 135.2421875 C-207.89639275 135.22089082 -209.54669182 135.19959966 -211.19699097 135.17831421 C-213.58235726 135.14754196 -215.96772292 135.11672533 -218.35308647 135.08574104 C-223.08318804 135.02435026 -227.81331451 134.96539418 -232.54345703 134.90722656 C-237.65168617 134.84271746 -242.75944656 134.76410622 -247.86721802 134.67016602 C-249.60303746 134.64038761 -251.33895262 134.61569322 -253.07492065 134.59643555 C-255.39417562 134.57000758 -257.71238702 134.52591148 -260.03125 134.4765625 C-261.27455078 134.45674316 -262.51785156 134.43692383 -263.79882812 134.41650391 C-267.30956858 133.95972209 -269.19285184 133.12539429 -272 131 C-274.20086729 127.69869907 -274.36103697 126.81909425 -274 123 C-258.38941985 73.99178443 -217.1832189 32.12348544 -172.515625 8.60546875 C-155.55930762 -0.09339605 -155.55930762 -0.09339605 -149 2 C-147.13445765 3.61344203 -145.63402829 5.17526284 -144 7 C-142.54656125 8.44244867 -141.08772801 9.87947205 -139.625 11.3125 C-136.18902923 14.74280085 -132.97051685 18.284397 -129.8125 21.96875 C-127.7890712 24.23638572 -125.66346653 26.3657695 -123.5 28.5 C-120.0928121 31.86114482 -116.92541826 35.33701203 -113.8125 38.96875 C-111.07345159 42.03837322 -108.1231636 44.88528608 -105.1953125 47.7734375 C-103.16776119 49.82985075 -101.25870439 51.93719983 -99.375 54.125 C-88.24002338 66.96327212 -77.01303133 74.26774333 -59.76123047 75.80517578 C-54.37313476 76.18534381 -48.98685671 76.41298345 -43.5871582 76.51727295 C-41.59459649 76.56178302 -39.60285936 76.63926793 -37.61132812 76.71728516 C-31.42149816 76.77701717 -27.05326818 76.79318051 -22.21484375 72.65234375 C-18.99883481 69.31645617 -16.82102452 66.52222032 -16.4375 61.828125 C-16.364104 60.95438232 -16.29070801 60.08063965 -16.21508789 59.18041992 C-16.14410889 58.21338135 -16.07312988 57.24634277 -16 56.25 C-15.91806396 55.23462158 -15.83612793 54.21924316 -15.75170898 53.1730957 C-15.21050893 46.06616203 -14.84591288 38.95991085 -14.53515625 31.83984375 C-14.49554779 30.9629892 -14.45593933 30.08613464 -14.41513062 29.18270874 C-14.21577695 24.76124783 -14.03146604 20.34011321 -13.87304688 15.91699219 C-13.802656 14.27145978 -13.73171701 12.6259507 -13.66015625 10.98046875 C-13.63824722 10.21895004 -13.6163382 9.45743134 -13.59376526 8.6728363 C-13.34708976 3.48039321 -13.34708976 3.48039321 -11.57861328 1.03271484 C-8.01884082 -1.29605681 -4.03682638 -0.63895779 0 0 Z " fill="#E6B43B" transform="translate(366,101)"/>
<path d="M0 0 C10.57433645 13.2881378 15.40663123 32.88807226 20 49 C20.20850586 49.72767578 20.41701172 50.45535156 20.63183594 51.20507812 C25.5935973 68.85991196 28.10434564 87.18538402 28.23828125 105.5078125 C28.246353 106.59093719 28.25442474 107.67406189 28.26274109 108.79000854 C28.27650272 111.07760051 28.28725987 113.36521233 28.29516602 115.65283203 C28.30659719 117.94260888 28.32690508 120.23236099 28.35668945 122.52197266 C28.55641208 137.9352034 27.44720887 152.4616291 24.46510315 167.59327698 C24.04602072 169.76186116 23.67046262 171.930229 23.32348633 174.11132812 C19.96631632 195.14296362 10.97029434 215.34491168 2.11499023 234.54589844 C1.19355081 236.57399327 0.32917715 238.62790943 -0.51953125 240.6875 C-2.33173295 244.74224154 -4.49245547 248.46806712 -6.8125 252.25 C-7.522854 253.40822266 -7.522854 253.40822266 -8.24755859 254.58984375 C-16.35934079 267.58543678 -25.47863373 279.86223045 -36 291 C-37.13029167 292.30794571 -38.25543311 293.62036248 -39.375 294.9375 C-47.17319412 303.84972186 -55.67608315 311.71422578 -65 319 C-66.24483022 319.99734772 -67.48961931 320.99474677 -68.734375 321.9921875 C-101.74062703 348.1506364 -140.61771699 365.3842093 -182 373 C-182.80066895 373.16081055 -183.60133789 373.32162109 -184.42626953 373.48730469 C-212.50412453 378.9794441 -245.98977935 378.73396692 -274 373 C-275.49490967 372.70996094 -275.49490967 372.70996094 -277.02001953 372.4140625 C-323.47822304 363.23433514 -366.26985759 342.30413982 -401 310 C-402.35022913 308.82877852 -403.70426491 307.66192767 -405.0625 306.5 C-412.31004033 300.15476388 -418.74128362 293.32828115 -424.75390625 285.8046875 C-426.21686491 283.97789738 -427.70296955 282.16933051 -429.21484375 280.3828125 C-456.54473343 248.00962156 -477.1482833 204.19151108 -482 162 C-481.34 162 -480.68 162 -480 162 C-479.50693359 163.05574219 -479.50693359 163.05574219 -479.00390625 164.1328125 C-464.33090697 194.59220938 -439.95111396 223.69176624 -413 244 C-412.46793945 244.40847168 -411.93587891 244.81694336 -411.38769531 245.23779297 C-386.18338293 264.55157909 -357.65000332 280.24285619 -327 289 C-326.17290527 289.2381543 -325.34581055 289.47630859 -324.49365234 289.72167969 C-282.05826211 301.69005248 -237.00033264 302.82319834 -194.06445312 292.48535156 C-192.14005779 292.03292749 -190.20299917 291.63533665 -188.265625 291.2421875 C-154.34103778 283.87038901 -120.7629003 265.91553825 -94 244 C-93.16082031 243.31309082 -93.16082031 243.31309082 -92.3046875 242.61230469 C-85.91415496 237.3573096 -79.71140486 231.99857047 -74 226 C-69 221 -69 221 -67.078125 219.18359375 C-60.30835997 212.66589444 -54.62226584 205.50170326 -49 198 C-48.56510254 197.42056641 -48.13020508 196.84113281 -47.68212891 196.24414062 C-38.03625606 183.29518731 -29.91476206 169.63597373 -22.97949219 155.05810547 C-22.33305807 153.69982041 -21.6801819 152.34458016 -21.02050781 150.99267578 C2.21505042 103.16904174 4.96397888 51.99635854 0 0 Z " fill="#262694" transform="translate(528,218)"/>
<path d="M0 0 C3.00102539 0.00314827 6.00104935 -0.02036026 9.00195312 -0.0456543 C26.75568232 -0.10398311 44.32230677 1.65627916 61.65039062 5.62817383 C63.06348511 5.94564575 63.06348511 5.94564575 64.50512695 6.26953125 C86.64601954 11.39503135 107.86238188 19.63042466 127.90039062 30.31567383 C128.54927246 30.65679199 129.1981543 30.99791016 129.86669922 31.34936523 C148.05446614 40.96501054 172.33499761 54.96758431 183.90039062 72.31567383 C180.7588692 71.14555249 177.76434529 69.77812287 174.76757812 68.28442383 C152.67543109 57.30578666 130.06671389 49.30028512 105.90039062 44.31567383 C104.79955643 44.07907295 104.79955643 44.07907295 103.67648315 43.83769226 C97.83445776 42.61398778 92.04566535 41.75940029 86.10351562 41.21020508 C85.20127258 41.12632034 84.29902954 41.04243561 83.3694458 40.95600891 C73.46488503 40.1008529 63.58649821 39.96243332 53.65039062 40.00317383 C52.71772369 40.00499664 51.78505676 40.00681946 50.8241272 40.00869751 C35.99804173 40.05726509 21.52110694 40.64812815 6.90039062 43.31567383 C6.01899414 43.47132812 5.13759766 43.62698242 4.22949219 43.78735352 C-35.37202043 51.05754693 -73.60190063 68.28256033 -105.09960938 93.31567383 C-105.99550781 94.01950195 -106.89140625 94.72333008 -107.81445312 95.44848633 C-115.23541461 101.38951432 -122.19925607 107.78602068 -129.09960938 114.31567383 C-129.78023438 114.95375977 -130.46085937 115.5918457 -131.16210938 116.24926758 C-136.28828581 121.19745178 -140.67866998 126.74049902 -145.09960938 132.31567383 C-145.89496094 133.30567383 -146.6903125 134.29567383 -147.50976562 135.31567383 C-155.59898078 145.57141412 -162.73299826 156.4566571 -169.28710938 167.75317383 C-171.22356672 171.04295079 -173.35034807 173.94030435 -175.78710938 176.87817383 C-199.91239786 206.40532956 -214.41721132 243.37663861 -222.41210938 280.31567383 C-222.5595459 280.99549316 -222.70698242 281.6753125 -222.85888672 282.37573242 C-223.32420236 284.68267243 -223.72048324 286.99292912 -224.09960938 289.31567383 C-224.27766113 290.36891846 -224.45571289 291.42216309 -224.63916016 292.50732422 C-226.39830686 304.39444197 -226.40385785 316.23437814 -226.36035156 328.23291016 C-226.34964013 331.74309605 -226.36029599 335.25276912 -226.37304688 338.76293945 C-226.37957526 351.0908221 -225.97670189 363.12205522 -224.09960938 375.31567383 C-228.12731952 371.70942627 -229.68979047 367.01160348 -231.78710938 362.12817383 C-232.22627686 361.1065918 -232.66544434 360.08500977 -233.11791992 359.0324707 C-239.32971133 344.30855753 -244.44371636 329.30045811 -247.91210938 313.69067383 C-248.09491455 312.87083008 -248.27771973 312.05098633 -248.46606445 311.20629883 C-252.19470132 293.16817761 -253.6238929 275.33116946 -253.47460938 256.94067383 C-253.46995667 255.91285797 -253.46530396 254.88504211 -253.46051025 253.82608032 C-253.38092064 238.80886209 -253.0466374 224.08788347 -250.09960938 209.31567383 C-249.80159424 207.78354248 -249.80159424 207.78354248 -249.49755859 206.22045898 C-239.60795406 156.75762043 -217.03152644 112.66286015 -182.09960938 76.31567383 C-181.58140625 75.77023926 -181.06320313 75.22480469 -180.52929688 74.6628418 C-173.16012194 66.93292215 -165.44820062 60.04767692 -156.89111328 53.65844727 C-155.09684724 52.31360354 -153.322425 50.94543143 -151.54882812 49.57348633 C-121.75798812 26.81027043 -85.81952576 11.92745816 -49.22460938 4.50317383 C-48.26401611 4.30828369 -47.30342285 4.11339355 -46.3137207 3.91259766 C-30.85209764 0.95280497 -15.71914333 -0.03429354 0 0 Z " fill="#FEF326" transform="translate(271.099609375,4.684326171875)"/>
<path d="M0 0 C2.72426811 0.01069389 5.44787112 0.00004283 8.17211914 -0.01269531 C25.37237838 -0.0283508 42.41633075 1.11882146 59.23657227 4.88574219 C60.99940552 5.27487793 60.99940552 5.27487793 62.79785156 5.671875 C82.8849219 10.27541553 101.76588008 17.59940923 120.42407227 26.26074219 C121.56078369 26.78667969 121.56078369 26.78667969 122.72045898 27.32324219 C143.49999494 37.04599513 162.19117289 50.10883652 178.86157227 65.85058594 C181.01879519 67.87955933 183.21658442 69.798958 185.48657227 71.69824219 C196.30273052 81.15681679 205.01390037 92.68908231 213.42407227 104.26074219 C213.92551758 104.94845703 214.42696289 105.63617188 214.94360352 106.34472656 C235.98409864 135.57380488 249.77525132 169.68869219 256.67407227 204.94824219 C256.82529541 205.7180542 256.97651855 206.48786621 257.13232422 207.28100586 C260.05998815 223.30463459 260.79876239 239.19481159 260.73657227 255.44824219 C260.73383804 256.93434494 260.73383804 256.93434494 260.73104858 258.45046997 C260.68628487 272.90536 260.30960948 287.0507272 257.42407227 301.26074219 C257.24714844 302.16115234 257.07022461 303.0615625 256.88793945 303.98925781 C255.58897952 310.46386639 254.07787959 316.86816371 252.42407227 323.26074219 C252.21443848 324.08074707 252.00480469 324.90075195 251.78881836 325.74560547 C243.51322406 357.38908268 228.15673236 387.9284522 207.42407227 413.26074219 C207.09407227 412.60074219 206.76407227 411.94074219 206.42407227 411.26074219 C207.02563477 409.49926758 207.02563477 409.49926758 208.04907227 407.35839844 C208.42257812 406.56022705 208.79608398 405.76205566 209.1809082 404.93969727 C209.59115234 404.07626709 210.00139648 403.21283691 210.42407227 402.32324219 C220.56001435 380.37983751 227.45056908 358.08906641 231.42407227 334.26074219 C231.60502441 333.31859863 231.78597656 332.37645508 231.97241211 331.40576172 C233.88860619 320.31227545 233.72614713 309.20315432 233.68481445 297.9765625 C233.67413829 294.53204566 233.68473416 291.08805526 233.69750977 287.64355469 C233.70795041 272.06913014 233.32680371 256.53174677 229.61157227 241.32324219 C229.43980469 240.59202148 229.26803711 239.86080078 229.09106445 239.10742188 C228.54766566 236.82203626 227.98633602 234.54154973 227.42407227 232.26074219 C227.24505371 231.50712402 227.06603516 230.75350586 226.8815918 229.97705078 C217.36287654 190.00863623 198.26988065 151.62887638 169.79516602 121.74902344 C167.78799268 119.64264878 165.90988355 117.49462566 164.04907227 115.26074219 C131.16311508 77.64355059 80.32431922 53.77521266 32.42407227 43.26074219 C31.6709375 43.08526855 30.91780273 42.90979492 30.1418457 42.72900391 C14.05790794 39.19026301 -2.23354511 38.88784853 -18.63183594 38.89013672 C-22.10914707 38.88577888 -25.58516883 38.84936327 -29.06225586 38.81152344 C-89.56401968 38.50961629 -150.80704961 62.74695952 -195.09545898 103.96777344 C-197.21102522 105.92342285 -199.36836064 107.78640099 -201.57592773 109.63574219 C-207.04758181 114.36644311 -211.76532345 119.87534144 -216.57592773 125.26074219 C-216.90592773 124.60074219 -217.23592773 123.94074219 -217.57592773 123.26074219 C-216.42490035 121.12001741 -215.22985439 119.15436983 -213.88842773 117.13574219 C-213.28091675 116.20955078 -213.28091675 116.20955078 -212.66113281 115.26464844 C-198.18033558 93.48753691 -181.20807389 73.42117491 -160.57592773 57.26074219 C-159.53134709 56.40463226 -158.48844559 55.5464704 -157.44702148 54.68652344 C-126.23301319 29.1549002 -88.12486733 12.46816198 -48.76342773 4.44824219 C-47.3351062 4.15590698 -47.3351062 4.15590698 -45.87792969 3.85766602 C-30.62899203 0.92870305 -15.50603617 -0.07199874 0 0 Z " fill="#EE2626" transform="translate(321.575927734375,43.7392578125)"/>
<path d="M0 0 C0.66 0 1.32 0 2 0 C2.32871094 0.70382812 2.65742187 1.40765625 2.99609375 2.1328125 C17.66697622 32.58781514 42.04735297 61.69998094 69 82 C69.52674316 82.4031543 70.05348633 82.80630859 70.59619141 83.22167969 C79.11437007 89.72682558 87.92436328 95.67402986 97.03491211 101.32128906 C101.69862488 104.26856466 105.56790428 107.3337786 109.36865234 111.33056641 C111.89866076 113.91964116 114.69776739 116.10815621 117.5625 118.3125 C118.16618408 118.77978516 118.76986816 119.24707031 119.3918457 119.72851562 C121.25460153 121.16129317 123.12559215 122.58251013 125 124 C125.56106445 124.42716309 126.12212891 124.85432617 126.70019531 125.29443359 C136.59965854 132.77903663 147.12510619 139.04016814 158 145 C158.66193359 145.36335449 159.32386719 145.72670898 160.00585938 146.10107422 C178.81033602 156.27790109 198.83446404 163.608773 219.63085938 168.44335938 C221.59979581 168.90597016 223.559216 169.40886109 225.515625 169.921875 C228.66516632 170.72987251 231.80512679 171.39420011 235 172 C236.06105957 172.20302734 236.06105957 172.20302734 237.14355469 172.41015625 C262.65658701 177.0584067 291.37828986 177.12894336 317 173 C318.31145996 172.80591553 318.31145996 172.80591553 319.64941406 172.60791016 C380.66709669 163.28137318 437.49186593 130.22456651 477 83 C477.33 83.66 477.66 84.32 478 85 C476.89764134 87.2453141 475.7424375 89.31149363 474.4375 91.4375 C474.03982422 92.09129639 473.64214844 92.74509277 473.23242188 93.41870117 C465.32806542 106.13253166 456.27759428 118.12028403 446 129 C444.86970833 130.30794571 443.74456689 131.62036248 442.625 132.9375 C434.82680588 141.84972186 426.32391685 149.71422578 417 157 C415.75516978 157.99734772 414.51038069 158.99474677 413.265625 159.9921875 C380.25937297 186.1506364 341.38228301 203.3842093 300 211 C299.19933105 211.16081055 298.39866211 211.32162109 297.57373047 211.48730469 C269.49587547 216.9794441 236.01022065 216.73396692 208 211 C206.50509033 210.70996094 206.50509033 210.70996094 204.97998047 210.4140625 C158.52177696 201.23433514 115.73014241 180.30413982 81 148 C79.64977087 146.82877852 78.29573509 145.66192767 76.9375 144.5 C69.68995967 138.15476388 63.25871638 131.32828115 57.24609375 123.8046875 C55.78313509 121.97789738 54.29703045 120.16933051 52.78515625 118.3828125 C25.45526657 86.00962156 4.8517167 42.19151108 0 0 Z " fill="#26B9F0" transform="translate(46,380)"/>
<path d="M0 0 C15.7063007 7.88520402 29.56669967 18.90221456 42.49609375 30.71875 C44.16076737 32.23539492 45.84054101 33.73563528 47.53515625 35.21875 C53.49496212 40.4508516 58.87176002 45.95152119 64 52 C64.44037598 52.51739746 64.88075195 53.03479492 65.33447266 53.56787109 C93.74288969 87.21331805 112.8009037 127.50456541 121.25 170.6875 C121.40122314 171.45731201 121.55244629 172.22712402 121.70825195 173.02026367 C124.63591588 189.04389241 125.37469012 204.9340694 125.3125 221.1875 C125.31067719 222.17823517 125.30885437 223.16897034 125.30697632 224.18972778 C125.2622126 238.64461782 124.88553721 252.78998501 122 267 C121.82307617 267.90041016 121.64615234 268.80082031 121.46386719 269.72851562 C120.16490726 276.2031242 118.65380732 282.60742152 117 289 C116.79036621 289.82000488 116.58073242 290.64000977 116.36474609 291.48486328 C108.08915179 323.12834049 92.73266009 353.66771002 72 379 C71.67 378.34 71.34 377.68 71 377 C71.6015625 375.23852539 71.6015625 375.23852539 72.625 373.09765625 C72.99850586 372.29948486 73.37201172 371.50131348 73.75683594 370.67895508 C74.16708008 369.8155249 74.57732422 368.95209473 75 368.0625 C85.13594209 346.11909532 92.02649681 323.82832423 96 300 C96.18095215 299.05785645 96.3619043 298.11571289 96.54833984 297.14501953 C98.46453392 286.05153327 98.30207487 274.94241214 98.26074219 263.71582031 C98.25006603 260.27130348 98.26066189 256.82731307 98.2734375 253.3828125 C98.28387814 237.80838795 97.90273144 222.27100458 94.1875 207.0625 C94.01573242 206.3312793 93.84396484 205.60005859 93.66699219 204.84667969 C93.1235934 202.56129408 92.56226376 200.28080755 92 198 C91.82098145 197.24638184 91.64196289 196.49276367 91.45751953 195.71630859 C87.46421511 178.94870477 82.02636247 162.77518428 74.25 147.375 C70.72100694 140.31040116 68.84499354 133.72425032 67.51318359 125.96557617 C59.64443063 81.16528263 34.66871126 34.6578921 1.36328125 3.48828125 C0 2 0 2 0 0 Z " fill="#EE269C" transform="translate(457,78)"/>
<path d="M0 0 C0.495 0.99 0.495 0.99 1 2 C-0.07965605 4.32848898 -1.22145454 6.55619656 -2.4375 8.8125 C-13.10993905 29.50670588 -19.84647342 52.12782105 -24 75 C-24.14324707 75.78624756 -24.28649414 76.57249512 -24.43408203 77.38256836 C-35.7103385 143.22667409 -20.21701853 213.24517608 18.0625 267.875 C24.81037813 277.33144303 32.15419263 286.11519192 39.98046875 294.6953125 C42.57392807 297.65496627 44.80224966 300.73882207 47 304 C42.31535881 302.40848082 38.5833656 299.8688961 34.5625 297.0625 C33.50905396 296.33051392 33.50905396 296.33051392 32.43432617 295.58374023 C20.51239154 287.22107281 9.47668698 278.10994181 -1 268 C-1.88268555 267.15018555 -1.88268555 267.15018555 -2.78320312 266.28320312 C-10.38763111 258.92276748 -17.59888456 251.45247962 -24 243 C-24.47759766 242.37174316 -24.95519531 241.74348633 -25.44726562 241.09619141 C-45.45206872 214.60788893 -53.37814462 195.44871171 -53.31567383 162.32299805 C-53.31252193 158.83675597 -53.33601818 155.35137171 -53.36132812 151.86523438 C-53.39987841 138.28872656 -52.51451598 125.34074043 -50 112 C-49.81187744 110.92194092 -49.62375488 109.84388184 -49.42993164 108.7331543 C-42.33360627 69.4626646 -25.39054658 30.94103816 0 0 Z " fill="#27B126" transform="translate(97,178)"/>
<path d="M0 0 C20.0719063 9.59736394 33.11046852 26.07901048 41.0390625 46.453125 C42.17769979 50.15018189 42.77544372 53.59980366 43.0390625 57.453125 C43.13058594 58.53464844 43.22210938 59.61617188 43.31640625 60.73046875 C43.61785724 67.14916916 43.22579884 71.62841552 39.5234375 76.96484375 C36.3724976 80.1240756 33.35081027 80.76370309 28.9765625 80.828125 C13.10521954 80.44873035 1.5771586 69.80390098 -8.86328125 58.90625 C-14.92466393 52.32649652 -20.43979794 45.12843087 -22.9609375 36.453125 C-23.6209375 36.453125 -24.2809375 36.453125 -24.9609375 36.453125 C-29.18009211 25.82989643 -32.97982675 14.49382041 -28.7421875 3.20703125 C-22.57290262 -6.33100787 -9.17348534 -3.43703145 0 0 Z " fill="#282726" transform="translate(335.9609375,204.546875)"/>
</svg>
