<?xml version="1.0" encoding="UTF-8"?>
<svg id="Layer_1" xmlns="http://www.w3.org/2000/svg" version="1.1" viewBox="0 0 542 542">
  <!-- Generator: Adobe Illustrator 30.0.0, SVG Export Plug-In . SVG Version: 2.1.1 Build 123)  -->
  <defs>
    <style>
      .st0 {
        fill: #c3c3c3;
      }

      .st1 {
        fill: #fefefe;
      }

      .st2 {
        fill: #a5a5a5;
      }

      .st3 {
        fill: #3e3e3e;
      }
    </style>
  </defs>
  <path class="st1" d="M542,0v542H0V0h542ZM419,96c-64.4-60.9-174.6-69.7-252-30.5C19.3,140.2-3.9,341.9,123,448.5c121.7,102.4,309.4,50.9,363.8-97.2,27.4-74.5,14.5-167.9-39.8-227.3,0-2-1.3-2.8-2.5-4-6.4-6.9-14.5-15.2-21.5-21.5s-2-2.5-4-2.5Z"/>
  <g>
    <path class="st2" d="M419,96c8.7,8.3,20,19.2,28,28,54.3,59.4,67.1,152.8,39.8,227.3-54.4,148.2-242.1,199.6-363.8,97.2C-3.9,341.9,19.3,140.2,167,65.5c77.4-39.2,187.7-30.4,252,30.5ZM129.6,120.6C9,232.6,63.2,435.6,222.8,472.7c158.8,36.9,296.5-114.8,243.2-269.2C417.5,62.7,239,18.9,129.6,120.6Z"/>
    <path class="st0" d="M447,124c-8-8.8-19.3-19.7-28-28,2,0,2.8,1.4,4,2.5,7,6.3,15.2,14.6,21.5,21.5s2.4,2,2.5,4Z"/>
    <path class="st3" d="M129.6,120.6c109.4-101.7,287.9-57.9,336.4,82.9,53.3,154.5-84.4,306.1-243.2,269.2C63.2,435.6,9,232.6,129.6,120.6ZM445.7,220.7c5.9-6.4,0-18.4-2.8-25.1-16.8-39.2-53.3-78.2-92.5-95.5-7.9-3.5-20.2-8.7-24.1,2.6s-1.9,15.2-2.3,20.7c-.7,9.2,0,19.7-1,29s-3.4,17.4-14.5,17.5c-16.6.1-35.6,0-49-11s-34.2-38.4-52.5-54.5c-11.5-8.1-22.8-1.4-33.2,4.6-32.9,19.1-62.7,52.6-77.2,87.8s-10.2,23.5,5,26c41,.6,82.4-.9,123.1,0s48.9,31.4,65,49c10.3,11.3,23.8,22.5,25.4,38.6-1,44.8-5.6,89.7-5.4,134.4,3.1,12.2,18.6,5,26.3,2.2,32.1-11.5,63.1-35.3,83.6-62.4,8.4-11.1,22.2-28.5,13.4-42.3-13.5-21.2-52.1-45.4-58.8-69.2-3.1-11-2.4-26.6-1.1-38s6.2-10.3,12.8-11.2c16-2.3,35.7,1.6,51.7-.3,2.4-.3,6.6-1.6,8.2-3.3Z"/>
    <path class="st2" d="M445.7,220.7c-1.6,1.7-5.8,3-8.2,3.3-16.1,1.8-35.8-2-51.7.3s-11.9,4.1-12.8,11.2c-1.4,11.4-2,27,1.1,38,6.7,23.8,45.2,48,58.8,69.2,8.8,13.8-5,31.2-13.4,42.3-20.5,27.1-51.5,50.9-83.6,62.4-7.7,2.7-23.2,9.9-26.3-2.2-.2-44.8,4.4-89.6,5.4-134.4-1.6-16.2-15-27.3-25.4-38.6-16.1-17.6-40.3-48.6-65-49-40.7-.8-82.1.7-123.1,0-15.1-2.5-9-16.3-5-26,14.5-35.2,44.3-68.8,77.2-87.8,10.4-6,21.7-12.7,33.2-4.6,18.3,16,34,39.2,52.5,54.5s32.4,11.1,49,11c11,0,13.5-8.3,14.5-17.5s.4-19.7,1-29c.4-5.5.7-16.1,2.3-20.7,3.9-11.3,16.2-6.1,24.1-2.6,39.2,17.3,75.7,56.3,92.5,95.5,2.9,6.7,8.7,18.7,2.8,25.1ZM291.3,197.3c-14.2,14.2,5.9,43.1,19.3,51.5,28.1,17.4,47.9-1.8,31.8-30.8-7.9-14.4-26.5-28.4-43.8-24.8s-6.3,3-7.4,4.1Z"/>
    <path class="st3" d="M291.3,197.3c1.1-1.1,5.9-3.8,7.4-4.1,17.3-3.6,35.9,10.4,43.8,24.8,16,29.1-3.7,48.3-31.8,30.8s-33.5-37.3-19.3-51.5Z"/>
  </g>
</svg>