<?xml version="1.0" encoding="UTF-8"?>
<svg id="Layer_1" xmlns="http://www.w3.org/2000/svg" version="1.1" viewBox="0 0 542 542">
  <!-- Generator: Adobe Illustrator 30.0.0, SVG Export Plug-In . SVG Version: 2.1.1 Build 123)  -->
  <defs>
    <style>
      .st0 {
        fill: #3e3e3e;
      }

      .st1 {
        fill: #ccc;
      }
    </style>
  </defs>
  <path class="st1" d="M444.3,66.1c10.2,9.7,23.4,22.5,32.8,32.8,63.6,69.5,78.5,178.8,46.5,266-63.7,173.4-283.3,233.6-425.7,113.8C-50.6,353.8-23.6,117.7,149.3,30.3,239.9-15.5,368.9-5.2,444.3,66.1ZM105.6,94.8C-35.5,225.9,27.8,463.5,214.6,506.9c185.8,43.2,347-134.3,284.7-315.1C442.5,27,233.6-24.2,105.6,94.8Z"/>
  <path class="st0" d="M105.6,94.8C233.6-24.2,442.5,27,499.3,191.8c62.3,180.8-98.8,358.3-284.7,315.1C27.8,463.5-35.5,225.9,105.6,94.8ZM475.5,212c6.9-7.4,0-21.5-3.3-29.3-19.7-45.8-62.4-91.5-108.3-111.8-9.2-4.1-23.6-10.2-28.2,3.1-1.9,5.4-2.2,17.8-2.6,24.3-.8,10.8,0,23.1-1.2,33.9s-4,20.4-17,20.5c-19.4.1-41.6,0-57.4-12.8-21.7-17.9-40-45-61.5-63.7-13.5-9.4-26.7-1.7-38.9,5.4-38.5,22.3-73.3,61.6-90.3,102.8-4.7,11.4-11.9,27.5,5.8,30.4,47.9.7,96.4-1,144,0,28.9.6,57.2,36.8,76,57.4,12.1,13.2,27.8,26.3,29.7,45.2-1.1,52.4-6.5,104.9-6.3,157.3,3.7,14.2,21.8,5.8,30.8,2.6,37.6-13.4,73.9-41.3,97.9-73,9.8-13,26-33.4,15.7-49.5-15.8-24.8-61-53.2-68.8-81-3.6-12.8-2.9-31.1-1.3-44.4,1-8.4,7.2-12,15-13.1,18.7-2.7,41.8,1.8,60.6-.3,2.8-.3,7.7-1.9,9.6-3.9Z"/>
  <path class="st1" d="M475.5,212c-1.9,2-6.8,3.6-9.6,3.9-18.8,2.1-41.9-2.4-60.6.3s-14,4.8-15,13.1c-1.6,13.3-2.4,31.6,1.3,44.4,7.8,27.8,53,56.2,68.8,81,10.3,16.1-5.9,36.5-15.7,49.5-24,31.7-60.3,59.6-97.9,73-9,3.2-27.1,11.6-30.8-2.6-.2-52.4,5.2-104.9,6.3-157.3-1.8-18.9-17.6-32-29.7-45.2-18.8-20.6-47.2-56.8-76-57.4-47.6-.9-96.1.8-144,0-17.7-2.9-10.5-19-5.8-30.4,17-41.2,51.8-80.5,90.3-102.8,12.2-7.1,25.4-14.9,38.9-5.4,21.5,18.8,39.8,45.9,61.5,63.7,15.7,12.9,37.9,13,57.4,12.8s15.8-9.8,17-20.5.4-23.1,1.2-33.9c.5-6.5.8-18.8,2.6-24.3,4.6-13.2,19-7.2,28.2-3.1,45.9,20.3,88.6,65.9,108.3,111.8,3.4,7.8,10.2,21.9,3.3,29.3ZM294.9,184.6c-16.6,16.6,6.9,50.5,22.6,60.3,32.9,20.4,56-2,37.3-36.1-9.3-16.8-31-33.2-51.2-29s-7.4,3.5-8.6,4.8Z"/>
  <path class="st0" d="M294.9,184.6c1.3-1.3,6.9-4.4,8.6-4.8,20.3-4.2,42,12.1,51.2,29,18.8,34-4.4,56.5-37.3,36.1-15.7-9.8-39.2-43.6-22.6-60.3Z"/>
</svg>