<?xml version="1.0" encoding="UTF-8"?>
<svg id="Layer_1" xmlns="http://www.w3.org/2000/svg" version="1.1" viewBox="0 0 542 542">
  <!-- Generator: Adobe Illustrator 30.0.0, SVG Export Plug-In . SVG Version: 2.1.1 Build 123)  -->
  <defs>
    <style>
      .st0 {
        fill: #3e3e3e;
      }

      .st1 {
        fill: #3e3e3e;
      }

      .st2 {
        fill: #a9a9a9;
      }
    </style>
  </defs>
  <g>
    <path class="st2" d="M444.9,65.3c10.2,9.8,23.5,22.6,32.9,32.9,63.8,69.8,78.8,179.5,46.8,267-63.9,174.1-284.4,234.5-427.4,114.2C-51.9,354.1-24.6,117.2,148.9,29.4,239.8-16.6,369.4-6.3,444.9,65.3ZM104.9,94.2C-36.7,225.7,26.9,464.2,214.4,507.8c186.6,43.4,348.3-134.9,285.7-316.3C443.2,26.1,233.5-25.3,104.9,94.2Z"/>
    <path class="st0" d="M104.9,94.2C233.5-25.3,443.2,26.1,500.2,191.5c62.6,181.5-99.2,359.6-285.7,316.3C26.9,464.2-36.7,225.7,104.9,94.2ZM476.3,211.8c6.9-7.5,0-21.6-3.3-29.5-19.7-46.1-62.6-91.9-108.7-112.2-9.3-4.1-23.7-10.2-28.3,3.1s-2.2,17.9-2.7,24.3c-.8,10.8,0,23.1-1.2,34.1-1.2,10.9-4,20.4-17,20.6-19.5.1-41.8,0-57.6-12.9-15.7-12.9-40.2-45.1-61.7-64-13.5-9.5-26.8-1.6-39,5.4-38.7,22.4-73.7,61.8-90.7,103.2-17,41.4-12,27.6,5.9,30.5,48.2.7,96.8-1.1,144.6,0,47.8,1.1,57.4,36.9,76.4,57.6,12.1,13.3,28,26.4,29.8,45.3-1.2,52.6-6.6,105.4-6.3,157.9,3.6,14.3,21.9,5.9,30.9,2.6,37.7-13.5,74.1-41.5,98.2-73.3,9.9-13,26.1-33.5,15.7-49.7-15.9-24.9-61.2-53.3-69.1-81.3-3.6-12.9-2.8-31.3-1.3-44.6s7.3-12.1,15-13.2c18.8-2.7,41.9,1.9,60.7-.4,2.8-.4,7.8-1.9,9.6-3.9v.5Z"/>
    <path class="st2" d="M476.3,211.8c-1.9,2-6.8,3.5-9.6,3.9-18.9,2.1-42.1-2.3-60.7.4-18.7,2.7-14,4.8-15,13.2-1.6,13.4-2.3,31.7,1.3,44.6,7.9,28,53.1,56.4,69.1,81.3,10.3,16.2-5.9,36.7-15.7,49.7-24.1,31.8-60.5,59.8-98.2,73.3-9,3.2-27.3,11.6-30.9-2.6-.2-52.6,5.2-105.3,6.3-157.9-1.9-19-17.6-32.1-29.8-45.3-18.9-20.7-47.3-57.1-76.4-57.6-47.8-.9-96.5.8-144.6,0-17.7-2.9-10.6-19.1-5.9-30.5,17-41.4,52-80.8,90.7-103.2,12.2-7,25.5-14.9,39-5.4,21.5,18.8,39.9,46.1,61.7,64,21.7,18,38.1,13,57.6,12.9,12.9,0,15.9-9.8,17-20.6,1.2-10.8.5-23.1,1.2-34.1.5-6.5.8-18.9,2.7-24.3,4.6-13.3,19-7.2,28.3-3.1,46.1,20.3,88.9,66.1,108.7,112.2,3.4,7.9,10.2,22,3.3,29.5v-.5ZM294.9,184.3c-16.7,16.7,6.9,50.6,22.7,60.5,33,20.4,56.3-2.1,37.4-36.2-9.3-16.9-31.1-33.4-51.5-29.1-3.8.4-7.4,3.5-8.7,4.8h.1Z"/>
    <path class="st0" d="M294.9,184.3c1.3-1.3,6.9-4.5,8.7-4.8,20.3-4.2,42.2,12.2,51.5,29.1,18.8,34.2-4.3,56.7-37.4,36.2-33-20.6-39.4-43.8-22.7-60.5h-.1Z"/>
  </g>
  <path class="st1" d="M105.9,95.2C233.9-23.8,442.8,27.4,499.6,192.2c62.3,180.8-98.8,358.3-284.7,315.1C28.2,463.9-35.2,226.3,105.9,95.2ZM475.9,212.4c6.9-7.4,0-21.5-3.3-29.3-19.7-45.8-62.4-91.5-108.3-111.8-9.2-4.1-23.6-10.2-28.2,3.1s-2.2,17.8-2.6,24.3c-.8,10.8,0,23.1-1.2,33.9-1.2,10.7-4,20.1-17,20.5-20,.7-39,2.2-57.4-12.8s-40-45-61.5-63.7c-13.5-9.4-26.7-1.7-38.9,5.4-38.5,22.3-73.3,61.6-90.3,102.8-4.7,11.4-11.9,27.5,5.8,30.4,47.9.7,96.4-1,144,0,28.9.6,57.2,36.8,76,57.4,12.1,13.2,27.8,26.3,29.7,45.2-1.1,52.4-6.5,104.9-6.3,157.3,3.7,14.2,21.8,5.8,30.8,2.6,37.6-13.4,73.9-41.3,97.9-73,9.8-13,26-33.4,15.7-49.5-15.8-24.8-61-53.2-68.8-81-3.6-12.8-2.9-31.1-1.3-44.4,1-8.4,7.2-12,15-13.1,18.7-2.7,41.8,1.8,60.6-.3,2.8-.3,7.7-1.9,9.6-3.9Z"/>
</svg>